<svg width="252" height="70" viewBox="0 0 252 70" fill="none" xmlns="http://www.w3.org/2000/svg">
<g clip-path="url(#clip0)">
<path d="M8.47958 5.88345H0V20.5639H8.47958V5.88345Z" fill="#9681BC"/>
<path d="M0 5.88346C0 2.63158 2.67374 0 5.97772 0H8.47958V11.7481H5.97772C2.67374 11.7481 0 9.11654 0 5.88346Z" fill="#71618D"/>
<path d="M193.174 14.1612L212.563 36.4222C214.82 39.0137 214.82 43.2086 212.563 45.7814L193.174 68.061C192.086 69.3102 190.624 70 189.098 70H5.24505C2.35459 70 0 67.3153 0 63.9966V12.2222H189.098C190.624 12.2222 192.102 12.9307 193.174 14.1612Z" fill="#9681BC"/>
<path d="M98.5886 29.3298C99.122 29.4791 99.5326 29.7244 99.8206 30.0658C100.119 30.3964 100.269 30.7964 100.269 31.2658C100.269 31.7884 100.093 32.2524 99.7406 32.6578C99.3886 33.0524 98.9033 33.3618 98.2846 33.5858C97.666 33.8098 96.962 33.9218 96.1726 33.9218C95.5113 33.9218 94.866 33.8471 94.2366 33.6978C93.6073 33.5378 93.0366 33.3138 92.5246 33.0258L93.1006 31.5378C93.5166 31.7724 93.986 31.9538 94.5086 32.0818C95.0313 32.2098 95.554 32.2738 96.0766 32.2738C96.7486 32.2738 97.2713 32.1724 97.6446 31.9698C98.0286 31.7564 98.2206 31.4684 98.2206 31.1058C98.2206 30.7751 98.0713 30.5191 97.7726 30.3378C97.4846 30.1564 97.074 30.0658 96.5406 30.0658H94.8766V28.7218H96.3806C96.882 28.7218 97.2713 28.6364 97.5486 28.4658C97.8366 28.2951 97.9806 28.0551 97.9806 27.7458C97.9806 27.4364 97.81 27.1911 97.4686 27.0098C97.1273 26.8284 96.658 26.7378 96.0606 26.7378C95.2073 26.7378 94.306 26.9458 93.3566 27.3618L92.8446 25.8898C93.9646 25.3671 95.0953 25.1058 96.2366 25.1058C96.962 25.1058 97.6126 25.2071 98.1886 25.4098C98.7646 25.6018 99.2126 25.8791 99.5326 26.2418C99.8633 26.5938 100.029 26.9991 100.029 27.4578C100.029 27.8738 99.9006 28.2471 99.6446 28.5778C99.3886 28.8978 99.0366 29.1484 98.5886 29.3298ZM105.528 25.1378C106.787 25.1378 107.747 25.4418 108.408 26.0498C109.08 26.6471 109.416 27.5538 109.416 28.7698V33.7778H107.528V32.7378C107.283 33.1111 106.931 33.3991 106.472 33.6018C106.024 33.7938 105.48 33.8898 104.84 33.8898C104.2 33.8898 103.64 33.7831 103.16 33.5698C102.68 33.3458 102.307 33.0418 102.04 32.6578C101.784 32.2631 101.656 31.8204 101.656 31.3298C101.656 30.5618 101.939 29.9484 102.504 29.4898C103.08 29.0204 103.981 28.7858 105.208 28.7858H107.416V28.6578C107.416 28.0604 107.235 27.6018 106.872 27.2818C106.52 26.9618 105.992 26.8018 105.288 26.8018C104.808 26.8018 104.333 26.8764 103.864 27.0258C103.405 27.1751 103.016 27.3831 102.696 27.6498L101.912 26.1938C102.36 25.8524 102.899 25.5911 103.528 25.4098C104.157 25.2284 104.824 25.1378 105.528 25.1378ZM105.256 32.4338C105.757 32.4338 106.2 32.3218 106.584 32.0978C106.979 31.8631 107.256 31.5324 107.416 31.1058V30.1138H105.352C104.2 30.1138 103.624 30.4924 103.624 31.2498C103.624 31.6124 103.768 31.9004 104.056 32.1138C104.344 32.3271 104.744 32.4338 105.256 32.4338ZM118.083 29.3298C119.139 29.6498 119.667 30.3324 119.667 31.3778C119.667 32.1458 119.379 32.7378 118.803 33.1538C118.227 33.5698 117.374 33.7778 116.243 33.7778H111.891V25.2338H116.067C117.112 25.2338 117.928 25.4258 118.515 25.8098C119.102 26.1938 119.395 26.7378 119.395 27.4418C119.395 27.8791 119.278 28.2578 119.043 28.5778C118.819 28.8978 118.499 29.1484 118.083 29.3298ZM113.795 28.8018H115.891C116.926 28.8018 117.443 28.4444 117.443 27.7298C117.443 27.0364 116.926 26.6898 115.891 26.6898H113.795V28.8018ZM116.083 32.3218C117.182 32.3218 117.731 31.9644 117.731 31.2498C117.731 30.8764 117.603 30.5991 117.347 30.4178C117.091 30.2258 116.691 30.1298 116.147 30.1298H113.795V32.3218H116.083ZM128.565 26.9298H125.573V33.7778H123.573V26.9298H120.565V25.2338H128.565V26.9298ZM134.752 25.1378C135.584 25.1378 136.325 25.3191 136.976 25.6818C137.637 26.0444 138.155 26.5564 138.528 27.2178C138.901 27.8791 139.088 28.6418 139.088 29.5058C139.088 30.3698 138.901 31.1378 138.528 31.8098C138.155 32.4711 137.637 32.9831 136.976 33.3458C136.325 33.7084 135.584 33.8898 134.752 33.8898C133.6 33.8898 132.688 33.5058 132.016 32.7378V36.8818H130.016V25.2338H131.92V26.3538C132.251 25.9484 132.656 25.6444 133.136 25.4418C133.627 25.2391 134.165 25.1378 134.752 25.1378ZM134.528 32.1778C135.264 32.1778 135.867 31.9324 136.336 31.4418C136.816 30.9511 137.056 30.3058 137.056 29.5058C137.056 28.7058 136.816 28.0604 136.336 27.5698C135.867 27.0791 135.264 26.8338 134.528 26.8338C134.048 26.8338 133.616 26.9458 133.232 27.1698C132.848 27.3831 132.544 27.6924 132.32 28.0978C132.096 28.5031 131.984 28.9724 131.984 29.5058C131.984 30.0391 132.096 30.5084 132.32 30.9138C132.544 31.3191 132.848 31.6338 133.232 31.8578C133.616 32.0711 134.048 32.1778 134.528 32.1778ZM144.153 25.1378C145.412 25.1378 146.372 25.4418 147.033 26.0498C147.705 26.6471 148.041 27.5538 148.041 28.7698V33.7778H146.153V32.7378C145.908 33.1111 145.556 33.3991 145.097 33.6018C144.649 33.7938 144.105 33.8898 143.465 33.8898C142.825 33.8898 142.265 33.7831 141.785 33.5698C141.305 33.3458 140.932 33.0418 140.665 32.6578C140.409 32.2631 140.281 31.8204 140.281 31.3298C140.281 30.5618 140.564 29.9484 141.129 29.4898C141.705 29.0204 142.606 28.7858 143.833 28.7858H146.041V28.6578C146.041 28.0604 145.86 27.6018 145.497 27.2818C145.145 26.9618 144.617 26.8018 143.913 26.8018C143.433 26.8018 142.958 26.8764 142.489 27.0258C142.03 27.1751 141.641 27.3831 141.321 27.6498L140.537 26.1938C140.985 25.8524 141.524 25.5911 142.153 25.4098C142.782 25.2284 143.449 25.1378 144.153 25.1378ZM143.881 32.4338C144.382 32.4338 144.825 32.3218 145.209 32.0978C145.604 31.8631 145.881 31.5324 146.041 31.1058V30.1138H143.977C142.825 30.1138 142.249 30.4924 142.249 31.2498C142.249 31.6124 142.393 31.9004 142.681 32.1138C142.969 32.3271 143.369 32.4338 143.881 32.4338ZM154.068 30.3538H152.516V33.7778H150.516V25.2338H152.516V28.6898H154.116L156.644 25.2338H158.788L155.684 29.3458L158.996 33.7778H156.644L154.068 30.3538ZM99.6766 49.3298C100.733 49.6498 101.261 50.3324 101.261 51.3778C101.261 52.1458 100.973 52.7378 100.397 53.1538C99.8206 53.5698 98.9673 53.7778 97.8366 53.7778H93.4846V45.2338H97.6606C98.706 45.2338 99.522 45.4258 100.109 45.8098C100.695 46.1938 100.989 46.7378 100.989 47.4418C100.989 47.8791 100.871 48.2578 100.637 48.5778C100.413 48.8978 100.093 49.1484 99.6766 49.3298ZM95.3886 48.8018H97.4846C98.5193 48.8018 99.0366 48.4444 99.0366 47.7298C99.0366 47.0364 98.5193 46.6898 97.4846 46.6898H95.3886V48.8018ZM97.6766 52.3218C98.7753 52.3218 99.3246 51.9644 99.3246 51.2498C99.3246 50.8764 99.1966 50.5991 98.9406 50.4178C98.6846 50.2258 98.2846 50.1298 97.7406 50.1298H95.3886V52.3218H97.6766ZM106.943 50.3538H105.391V53.7778H103.391V45.2338H105.391V48.6898H106.991L109.519 45.2338H111.663L108.559 49.3458L111.871 53.7778H109.519L106.943 50.3538ZM121.026 45.2338V53.7778H119.026V46.9298H115.826L115.746 48.6258C115.692 49.7564 115.586 50.7058 115.426 51.4738C115.276 52.2311 115.015 52.8338 114.642 53.2818C114.279 53.7191 113.778 53.9378 113.138 53.9378C112.839 53.9378 112.471 53.8791 112.034 53.7618L112.13 52.0818C112.279 52.1138 112.407 52.1298 112.514 52.1298C112.919 52.1298 113.223 51.9698 113.426 51.6498C113.628 51.3191 113.756 50.9298 113.81 50.4818C113.874 50.0231 113.927 49.3724 113.97 48.5298L114.114 45.2338H121.026ZM131.527 45.1378C132.38 45.1378 133.143 45.3244 133.815 45.6978C134.487 46.0604 135.015 46.5778 135.399 47.2498C135.783 47.9111 135.975 48.6631 135.975 49.5058C135.975 50.3484 135.783 51.1058 135.399 51.7778C135.015 52.4391 134.487 52.9564 133.815 53.3298C133.143 53.7031 132.38 53.8898 131.527 53.8898C130.78 53.8898 130.098 53.7458 129.479 53.4578C128.86 53.1591 128.348 52.7431 127.943 52.2098C127.538 51.6658 127.276 51.0471 127.159 50.3538H125.719V53.7778H123.719V45.2338H125.719V48.5458H127.191C127.319 47.8738 127.586 47.2818 127.991 46.7698C128.396 46.2471 128.903 45.8471 129.511 45.5698C130.119 45.2818 130.791 45.1378 131.527 45.1378ZM131.527 52.1938C131.996 52.1938 132.418 52.0871 132.791 51.8738C133.164 51.6498 133.458 51.3351 133.671 50.9298C133.884 50.5138 133.991 50.0391 133.991 49.5058C133.991 48.6951 133.756 48.0498 133.287 47.5698C132.828 47.0791 132.242 46.8338 131.527 46.8338C130.812 46.8338 130.226 47.0791 129.767 47.5698C129.308 48.0498 129.079 48.6951 129.079 49.5058C129.079 50.3164 129.308 50.9671 129.767 51.4578C130.236 51.9484 130.823 52.1938 131.527 52.1938ZM145.186 45.2338V53.7778H143.186V50.4658C142.364 50.8604 141.506 51.0578 140.61 51.0578C139.511 51.0578 138.668 50.8071 138.082 50.3058C137.495 49.7938 137.202 49.0151 137.202 47.9698V45.2338H139.202V47.8418C139.202 48.3858 139.362 48.7911 139.682 49.0578C140.002 49.3244 140.455 49.4578 141.042 49.4578C141.788 49.4578 142.503 49.2978 143.186 48.9778V45.2338H145.186ZM155.875 49.5538C155.875 49.6924 155.865 49.8898 155.843 50.1458H149.139C149.257 50.7751 149.561 51.2764 150.051 51.6498C150.553 52.0124 151.171 52.1938 151.907 52.1938C152.846 52.1938 153.619 51.8844 154.227 51.2658L155.299 52.4978C154.915 52.9564 154.43 53.3031 153.843 53.5378C153.257 53.7724 152.595 53.8898 151.859 53.8898C150.921 53.8898 150.094 53.7031 149.379 53.3298C148.665 52.9564 148.11 52.4391 147.715 51.7778C147.331 51.1058 147.139 50.3484 147.139 49.5058C147.139 48.6738 147.326 47.9271 147.699 47.2658C148.083 46.5938 148.611 46.0711 149.283 45.6978C149.955 45.3244 150.713 45.1378 151.555 45.1378C152.387 45.1378 153.129 45.3244 153.779 45.6978C154.441 46.0604 154.953 46.5778 155.315 47.2498C155.689 47.9111 155.875 48.6791 155.875 49.5538ZM151.555 46.7378C150.915 46.7378 150.371 46.9298 149.923 47.3138C149.486 47.6871 149.219 48.1884 149.123 48.8178H153.971C153.886 48.1991 153.625 47.6978 153.187 47.3138C152.75 46.9298 152.206 46.7378 151.555 46.7378ZM158.063 45.2338H160.063V48.7058H164.367V45.2338H166.367V53.7778H164.367V50.4018H160.063V53.7778H158.063V45.2338Z" fill="white"/>
<path d="M75.8576 51.7368H71.0088C72.826 50.9614 74.37 49.669 75.445 48.0233C75.6741 47.6457 75.7034 47.1812 75.5234 46.7783C75.4759 46.6715 75.417 46.5433 75.3508 46.4037C76.2041 45.1825 76.8399 43.8256 77.2307 42.3917C77.5609 40.8379 77.6367 39.2416 77.455 37.6639C77.3811 36.9959 76.9251 36.4299 76.2839 36.2103C75.555 32.7446 74.5737 32.1912 74.2416 32.0082C73.8196 31.7686 73.3103 31.7329 72.8585 31.9113C71.0785 32.5829 71.072 34.1591 71.0663 35.5486C71.0663 35.8812 71.0555 36.221 71.0339 36.56C70.3433 36.7197 69.7859 37.2232 69.5617 37.8897C69.4182 38.3051 69.219 38.6994 68.9693 39.062C68.6726 38.9056 68.3671 38.7662 68.0542 38.6447C67.7566 38.5355 67.4292 38.5367 67.1326 38.6482L63.4411 40.0456C63.1512 40.1569 62.9095 40.3646 62.7574 40.6332C62.5865 40.9421 62.4327 41.26 62.2966 41.5855C62.1042 41.5271 61.9155 41.4572 61.7316 41.3761V33.2189C61.7316 32.4322 61.0879 31.7945 60.2938 31.7945H43.0407C42.2466 31.7945 41.6029 32.4322 41.6029 33.2189V34.189C40.9385 34.0179 40.2549 33.9312 39.5685 33.9312C34.4141 33.9312 34.4141 39.5435 34.4141 41.3882C34.4141 45.5113 36.437 48.1757 39.5685 48.1757C40.398 48.1712 41.223 48.0542 42.0206 47.8281C42.5513 49.4086 43.5799 50.7786 44.955 51.7368H38.979C38.5639 51.7018 38.1518 51.8326 37.8346 52.1001C37.5173 52.3677 37.3211 52.7497 37.2896 53.1613V54.5857C37.2896 56.1833 38.8841 57.4346 40.92 57.4346H73.9167C75.9525 57.4346 77.547 56.1833 77.547 54.5857V53.1613C77.5155 52.7497 77.3193 52.3677 77.0021 52.1001C76.6848 51.8326 76.2728 51.7018 75.8576 51.7368ZM73.3689 33.2375C73.4226 33.2088 73.488 33.2121 73.5385 33.246C73.6615 33.3137 74.2517 33.7631 74.7944 36.1213C74.1898 36.1462 73.4063 36.1989 72.494 36.3157C72.5033 36.05 72.5055 35.7908 72.5062 35.5494C72.5098 34.0736 72.5824 33.5345 73.3689 33.2375ZM70.9333 38.3213C71.0066 38.1094 71.1917 37.9547 71.415 37.9189C71.5479 37.8919 71.6795 37.8726 71.8254 37.8477C73.0807 37.6376 74.351 37.5273 75.624 37.5179H75.6715C75.847 37.5061 76.0021 37.6303 76.0273 37.8028C76.193 39.2205 76.1284 40.6553 75.8361 42.0527C75.5647 43.0689 75.144 44.0401 74.5874 44.9351C73.4987 42.942 72.0028 41.1955 70.195 39.807C70.5059 39.3461 70.7542 38.8466 70.9333 38.3213ZM63.9961 41.3561L67.5998 39.9922C71.448 41.4915 73.7822 46.3823 74.2136 47.2997C73.816 47.9805 72.5364 49.6991 69.2468 50.9427C68.1185 51.3827 66.9294 51.6504 65.72 51.7368H64.7718C64.27 51.714 63.7735 51.6253 63.2952 51.4733C63.2542 51.2988 63.1988 51.0595 63.1435 50.7718C62.8013 49.0076 62.2039 44.574 63.9932 41.3561H63.9961ZM59.6174 50.6379C60.3261 50.9786 61.0633 51.2579 61.8207 51.4726C61.8423 51.5723 61.8624 51.6571 61.8804 51.7368H58.3529C58.8125 51.4159 59.2364 51.0475 59.6174 50.6379ZM61.5389 49.885C60.5713 49.5681 59.6608 49.1005 58.8417 48.4998C57.77 47.6111 56.8578 46.5491 56.1437 45.3588C56.0583 45.1769 56.1122 44.9606 56.2731 44.8389C56.2825 44.8304 56.2918 44.8218 56.2997 44.8133C57.2909 43.9672 58.3462 43.1979 59.4563 42.5121C59.5706 42.4409 59.6849 42.3646 59.8237 42.2849C59.9911 42.1769 60.2059 42.1722 60.3779 42.2728C60.828 42.5554 61.3155 42.7748 61.8265 42.9245C61.2653 45.2027 61.1676 47.5689 61.5389 49.885ZM55.3163 40.1475C55.3388 40.0721 55.3975 40.0127 55.473 39.9887C56.235 39.7038 56.5837 40.0442 57.4715 41.1717C57.6239 41.3647 57.7871 41.5712 57.9625 41.7785C57.1789 42.2991 56.5341 42.782 56.0467 43.1709C55.299 41.5199 55.1653 40.5335 55.3163 40.1475ZM41.6029 43.4558C40.9626 43.7405 40.2702 43.8925 39.5685 43.9023C39.0221 43.9023 38.7274 42.6068 38.7274 41.3882C38.7274 38.2045 39.2133 38.2045 39.5685 38.2045C40.3045 38.1748 41.0267 38.4087 41.6029 38.8633V43.4558ZM35.8518 41.3903C35.8518 38.5799 36.2745 35.3556 39.5685 35.3556C40.2592 35.3522 40.946 35.4582 41.6029 35.6697V37.2003C40.9638 36.9148 40.2694 36.7714 39.5685 36.7801C37.4636 36.7801 37.2896 38.9602 37.2896 41.3882C37.2896 43.8546 38.1415 45.3268 39.5685 45.3268C40.2617 45.3197 40.9491 45.1994 41.6029 44.9707V45.3268C41.6059 45.6991 41.6362 46.0706 41.6935 46.4386C41.0033 46.6405 40.288 46.7457 39.5685 46.7512C37.2414 46.7512 35.8518 44.7463 35.8518 41.3882V41.3903ZM43.2082 46.7683C43.0962 46.2959 43.04 45.8121 43.0407 45.3268L43.0406 33.2189H60.2938V40.8006C59.9171 40.7658 59.5383 40.84 59.2033 41.0143C58.9955 40.7792 58.7957 40.5371 58.6052 40.2949C57.7907 39.2608 56.7792 37.9709 54.9619 38.6568C54.5064 38.8235 54.1466 39.1784 53.9763 39.629C53.6018 40.5855 53.9281 42.0926 54.9533 44.2093C54.5775 44.7842 54.565 45.5209 54.9209 46.1081C55.7255 47.443 56.7536 48.6326 57.9611 49.6258C58.0869 49.7219 58.217 49.8095 58.3471 49.8979C57.1434 51.0783 55.5175 51.7393 53.8239 51.7368H49.5106C46.4932 51.7491 43.8726 49.6823 43.2082 46.7662V46.7683ZM76.1093 54.5857C76.1093 55.3578 75.1028 56.0102 73.9167 56.0102H40.92C39.7338 56.0102 38.7274 55.3578 38.7274 54.5857V53.2261C38.8032 53.1809 38.8905 53.1584 38.979 53.1613H75.8576C75.9461 53.1584 76.0335 53.1809 76.1093 53.2261V54.5857Z" fill="white"/>
<path d="M50.2306 28.9456C50.2306 29.339 50.5524 29.6578 50.9494 29.6578C51.3465 29.6578 51.6683 29.339 51.6683 28.9456C51.6636 28.4432 51.8664 27.9607 52.2298 27.6102C53.3982 26.3522 53.3982 24.4168 52.2298 23.1588C51.8664 22.8083 51.6636 22.3258 51.6683 21.8233C51.6683 21.43 51.3465 21.1111 50.9494 21.1111C50.5524 21.1111 50.2306 21.43 50.2306 21.8233C50.2242 22.649 50.5379 23.4457 51.1069 24.049C51.4663 24.4022 51.6684 24.883 51.6684 25.3845C51.6684 25.886 51.4663 26.3667 51.1069 26.7199C50.5379 27.3233 50.2242 28.1199 50.2306 28.9456Z" fill="white"/>
<path d="M45.9181 28.9456C45.9181 29.339 46.2399 29.6578 46.6369 29.6578C47.034 29.6578 47.3558 29.339 47.3558 28.9456C47.3511 28.4432 47.5539 27.9607 47.9173 27.6102C49.0857 26.3522 49.0857 24.4168 47.9173 23.1588C47.5539 22.8083 47.3511 22.3258 47.3558 21.8233C47.3558 21.43 47.034 21.1111 46.6369 21.1111C46.2399 21.1111 45.9181 21.43 45.9181 21.8233C45.9117 22.649 46.2254 23.4457 46.7944 24.049C47.1538 24.4022 47.3559 24.883 47.3559 25.3845C47.3559 25.886 47.1538 26.3667 46.7944 26.7199C46.2254 27.3233 45.9117 28.1199 45.9181 28.9456Z" fill="white"/>
<path d="M54.5431 28.9456C54.5431 29.339 54.8649 29.6578 55.2619 29.6578C55.659 29.6578 55.9808 29.339 55.9808 28.9456C55.9761 28.4432 56.1789 27.9607 56.5423 27.6102C57.7107 26.3522 57.7107 24.4168 56.5423 23.1588C56.1789 22.8083 55.9761 22.3258 55.9808 21.8233C55.9808 21.43 55.659 21.1111 55.2619 21.1111C54.8649 21.1111 54.5431 21.43 54.5431 21.8233C54.5367 22.649 54.8504 23.4457 55.4194 24.049C55.7788 24.4022 55.9809 24.883 55.9809 25.3845C55.9809 25.886 55.7788 26.3667 55.4194 26.7199C54.8504 27.3233 54.5367 28.1199 54.5431 28.9456Z" fill="white"/>
</g>
<defs>
<clipPath id="clip0">
<rect width="252" height="70" fill="white"/>
</clipPath>
</defs>
</svg>
