<svg width="46" height="46" viewBox="0 0 46 46" fill="none" xmlns="http://www.w3.org/2000/svg">
<path d="M23 46C35.6823 46 46 35.6823 46 23C46 10.3177 35.6823 0 23 0C10.3177 0 0 10.3177 0 23C0 35.6823 10.3177 46 23 46ZM23 2.05096C34.5515 2.05096 43.949 11.4485 43.949 23C43.949 34.5515 34.5515 43.949 23 43.949C11.4485 43.949 2.05096 34.5515 2.05096 23C2.05096 11.4485 11.4485 2.05096 23 2.05096Z" fill="#4A586E"/>
<path d="M17.3307 20.933C19.6763 20.933 21.5774 19.0314 21.5774 16.6863C21.5779 14.3407 19.6763 12.4391 17.3307 12.4391C14.985 12.4391 13.084 14.3407 13.084 16.6857C13.0863 19.0303 14.9862 20.9301 17.3307 20.933ZM17.3307 14.49C18.5433 14.49 19.5264 15.4731 19.5264 16.6857C19.527 17.8989 18.5439 18.8821 17.3307 18.8821C16.1181 18.8821 15.1349 17.8989 15.1349 16.6857C15.1361 15.4737 16.1186 14.4917 17.3307 14.49Z" fill="#4A586E"/>
<path d="M24.1641 29.5718C24.1641 31.9174 26.0657 33.8184 28.4108 33.8184C30.7564 33.8184 32.658 31.9174 32.658 29.5718C32.658 27.2261 30.7564 25.3245 28.4108 25.3245C26.0662 25.3274 24.1669 27.2272 24.1641 29.5718ZM30.6071 29.5718C30.6071 30.7844 29.6239 31.7675 28.4108 31.7675C27.1981 31.7675 26.215 30.7844 26.215 29.5718C26.215 28.3592 27.1981 27.376 28.4108 27.3754C29.6234 27.3772 30.6053 28.3592 30.6071 29.5718Z" fill="#4A586E"/>
<path d="M15.192 34.9727C15.6664 35.2823 16.3022 35.1484 16.6112 34.674L31.1075 12.4465C31.3084 12.1392 31.3301 11.7484 31.1648 11.421C30.9988 11.0937 30.6709 10.8797 30.3047 10.8602C29.9384 10.8408 29.5893 11.0182 29.3896 11.326L14.8933 33.5535C14.5837 34.0285 14.7176 34.6637 15.192 34.9727Z" fill="#4A586E"/>
</svg>
